<svg width="56" height="51" viewBox="0 0 56 51" fill="none" xmlns="http://www.w3.org/2000/svg">
<path d="M20.5503 2.92477C24.4546 -0.974912 30.7798 -0.974912 34.6841 2.92477L35.4188 3.65858C37.1279 5.36568 39.3972 6.39642 41.8072 6.5603L43.147 6.6514C48.6541 7.02586 52.6357 12.1009 51.7392 17.5474V17.5474C51.3342 20.0081 51.9402 22.5431 53.4234 24.5479V24.5479C56.7763 29.0798 55.3165 35.5326 50.3394 38.1801L49.8719 38.4288C47.6763 39.5967 46.0142 41.5648 45.2303 43.925L45.1788 44.0802C43.4027 49.4278 37.5611 52.2527 32.2665 50.3245L31.0392 49.8775C28.8289 49.0725 26.4055 49.0725 24.1951 49.8775L22.9679 50.3245C17.6732 52.2527 11.8317 49.4278 10.0556 44.0802L10.004 43.925C9.22014 41.5648 7.55809 39.5967 5.36243 38.4288L4.89499 38.1801C-0.0820743 35.5326 -1.54189 29.0798 1.81099 24.5479V24.5479C3.29421 22.5431 3.90014 20.0081 3.49514 17.5474V17.5474C2.59872 12.1009 6.5803 7.02586 12.0873 6.6514L13.4271 6.5603C15.8372 6.39642 18.1065 5.36568 19.8156 3.65858L20.5503 2.92477Z" fill="#B7E90E"/>
</svg>
